<svg version="1.1" id="Layer_1" xmlns="http://www.w3.org/2000/svg" xmlns:xlink="http://www.w3.org/1999/xlink" x="0px" y="0px"
	 width="100%" viewBox="0 0 1024 1024" enable-background="new 0 0 1024 1024" xml:space="preserve">
<path fill="#000000" opacity="1.000000" stroke="none" 
	d="
M726.031433,858.978088 
	C726.255554,861.358093 727.255493,863.276367 728.750061,865.219055 
	C734.118591,872.197144 739.620422,879.107361 744.049377,886.745178 
	C745.938049,890.002197 748.368896,893.508362 743.652710,896.679321 
	C739.166992,899.695374 735.840210,899.023010 732.115601,894.532654 
	C715.342163,874.310669 699.362244,853.460205 683.742554,832.354553 
	C675.770142,821.581970 667.771790,810.874146 658.960999,800.781616 
	C657.225403,798.793518 655.357422,796.920959 652.697083,795.587646 
	C653.751465,797.030151 654.763000,798.506348 655.866821,799.909973 
	C665.535950,812.205933 675.085938,824.599060 684.940491,836.744812 
	C694.790771,848.885193 702.628662,862.485779 712.539795,874.538696 
	C717.961670,881.132385 721.845276,888.609436 726.166321,895.818970 
	C727.767334,898.490234 732.065430,901.932739 727.295837,905.590576 
	C723.523438,908.483887 719.685730,907.579041 715.684753,902.817871 
	C709.921814,895.959961 704.364563,888.929688 698.684021,882.002136 
	C694.289612,876.643005 689.407898,871.688232 684.948547,866.280090 
	C686.814453,869.120117 688.644531,871.984497 690.552429,874.796082 
	C700.064636,888.814209 709.560059,902.844116 719.149231,916.809509 
	C721.513000,920.251831 721.796631,923.225586 718.002991,925.680115 
	C714.064575,928.228149 711.291992,926.151245 709.274475,922.919739 
	C703.373413,913.468079 695.462585,905.589661 688.954224,896.619263 
	C681.153259,885.867249 673.612183,874.908813 665.415283,864.466248 
	C653.095764,848.771606 642.767944,831.653809 630.200562,816.134338 
	C624.695129,809.335632 620.188354,801.735046 615.110474,794.582092 
	C606.765625,782.826904 598.298401,771.158630 589.930481,759.419739 
	C573.246155,736.014343 556.573608,712.600342 539.938293,689.160095 
	C532.817505,679.126404 524.799194,669.749573 518.229736,659.306458 
	C517.122803,657.546875 515.707336,655.785034 513.602783,654.780518 
	C510.719391,655.671082 509.880585,658.516052 508.384644,660.548462 
	C494.861847,678.921509 481.101074,697.139832 468.214355,715.954346 
	C457.495667,731.603577 446.418610,747.008728 435.835175,762.760315 
	C429.570435,772.084167 422.371887,780.882690 416.244171,790.355896 
	C407.692902,803.575806 397.942688,815.952209 389.573608,829.322510 
	C385.591217,835.684692 380.587585,841.561218 376.001862,847.619812 
	C373.367706,851.099976 371.387878,854.922791 369.188416,858.581726 
	C361.665405,871.096680 351.957153,882.061523 344.346985,894.506470 
	C339.183319,902.950562 333.567902,911.124390 327.974304,919.295715 
	C326.495331,921.456177 324.520905,923.374451 322.465576,925.018372 
	C320.024384,926.970947 317.217285,926.952271 314.636841,925.050476 
	C312.075989,923.163208 312.621643,920.904663 313.805450,918.400452 
	C317.082245,911.468445 321.510376,905.270508 325.750580,898.934265 
	C332.872772,888.291382 339.623291,877.395447 346.896454,866.858826 
	C359.761078,848.221863 372.150330,829.268127 385.358734,810.852295 
	C396.696014,795.045227 406.607422,778.221497 417.339142,761.972656 
	C430.460297,742.105835 443.842285,722.411438 456.982697,702.557251 
	C462.461090,694.279724 467.417847,685.660706 472.672028,677.173828 
	C466.800140,684.890625 460.903778,692.588928 455.060547,700.327332 
	C427.162567,737.273682 399.403625,774.319580 374.776245,813.584412 
	C353.289246,847.842346 330.022430,880.948914 308.887085,915.435059 
	C307.413086,917.840088 305.728699,920.120056 304.077332,922.411560 
	C301.824921,925.537048 298.533539,925.448364 295.527283,924.370422 
	C292.331329,923.224487 291.768066,920.178345 292.699707,917.249695 
	C295.088593,909.740417 299.713318,903.330261 303.416656,896.473816 
	C306.859467,890.099670 310.690979,883.935547 315.063995,876.460876 
	C308.633484,881.037170 306.093567,887.199402 301.026703,891.091248 
	C297.755829,893.603699 294.975494,895.363037 291.875275,891.486938 
	C291.094452,891.789001 290.546021,891.860107 290.191956,892.160400 
	C287.279388,894.630737 284.082214,896.871338 280.327454,894.474426 
	C276.468964,892.011414 277.023285,887.875793 277.805023,884.084656 
	C278.916168,878.695984 280.812866,873.544617 283.055817,868.514526 
	C291.326324,849.966980 299.438843,831.344116 309.784424,813.810120 
	C310.009460,813.428711 310.034424,812.929260 310.406799,811.530457 
	C305.658447,816.719421 301.951477,821.562683 299.025940,826.880066 
	C289.723206,843.788635 280.012085,860.510925 273.581451,878.831238 
	C273.416138,879.302307 273.227386,879.768616 273.007660,880.216614 
	C270.630127,885.065002 267.011475,887.463684 263.829132,885.938904 
	C258.823547,883.540649 260.861481,879.421082 262.025360,875.940491 
	C265.816711,864.602478 271.209198,853.972107 276.582306,843.177551 
	C272.553528,847.749390 268.483276,852.285522 264.505829,856.901611 
	C258.756165,863.574219 255.644379,864.503113 248.881714,861.394409 
	C244.047363,864.851746 241.737366,870.933716 235.729904,873.350159 
	C232.294235,874.732178 229.579285,874.240356 226.838593,872.501404 
	C223.882935,870.626099 224.367783,867.567688 224.984940,864.805786 
	C225.487091,862.558472 226.457520,860.394531 227.390045,858.268066 
	C233.805740,843.638306 241.329376,829.572205 249.695206,814.677063 
	C242.774963,819.955872 238.729233,826.348206 234.681824,832.573303 
	C231.249176,837.852783 228.663803,843.688660 225.790115,849.322510 
	C225.020065,850.832153 224.286591,852.240967 222.761108,853.161316 
	C220.738129,854.381775 218.537949,854.742554 216.619095,853.521606 
	C214.750870,852.332886 215.426422,850.108398 215.957321,848.450317 
	C217.147079,844.734619 218.665680,841.124207 220.362457,836.647522 
	C214.435730,843.237488 209.276749,849.314209 203.730133,855.013794 
	C200.394714,858.441223 195.755508,857.447510 193.276474,853.393250 
	C192.097061,851.464417 192.471527,849.668091 193.147629,847.676086 
	C195.332520,841.238708 198.953979,835.507568 201.636856,829.223938 
	C198.809418,832.661499 195.903030,836.037720 193.175064,839.552429 
	C189.974289,843.676453 186.650879,842.511353 183.223709,840.021240 
	C179.924454,837.624023 181.081482,835.122925 182.759995,832.241821 
	C194.432053,812.206848 209.605911,794.620178 222.410095,775.410400 
	C236.765793,753.872925 252.783554,733.564331 267.633423,712.396790 
	C277.041351,698.986328 286.874908,685.823853 296.274811,672.381287 
	C304.377014,660.794495 313.304749,649.866760 321.937012,638.694824 
	C335.421600,621.242920 348.340912,603.354065 361.485168,585.639465 
	C376.295410,565.679810 390.285461,545.106201 406.153076,525.938477 
	C408.530334,523.066772 409.059692,520.710815 406.437286,517.216492 
	C388.871826,493.810120 370.561218,471.000916 352.373932,448.082306 
	C341.846527,434.816254 332.306183,420.745331 321.900635,407.338898 
	C308.251617,389.753571 294.845917,371.977112 281.496429,354.162292 
	C268.036041,336.199432 255.278976,317.684601 241.281174,300.156342 
	C227.069458,282.360260 214.882477,263.150146 201.113342,245.059509 
	C195.399765,237.552673 190.796402,229.180344 185.928848,221.057373 
	C182.793823,215.825668 185.000626,209.476868 190.635788,207.422958 
	C194.794754,205.907074 196.971146,209.167191 199.173340,211.879608 
	C204.062363,217.901367 208.924667,223.944809 214.741272,229.338989 
	C210.808273,222.338028 206.856003,215.347748 202.956909,208.327942 
	C202.070297,206.731750 201.324936,205.052094 200.589935,203.377762 
	C199.271515,200.374420 198.972382,197.067764 202.198257,195.518066 
	C205.317505,194.019608 207.431595,196.807724 209.032822,199.164932 
	C212.865646,204.807220 216.585846,210.527451 220.278961,216.262939 
	C231.359085,233.470627 241.926407,251.029770 254.776062,267.028259 
	C258.518097,271.687286 262.542419,276.119537 266.780762,281.163452 
	C269.240875,286.592743 273.553223,289.708710 276.876282,293.642700 
	C273.819031,289.236145 270.923004,284.708191 266.974609,281.012848 
	C259.874115,269.984528 252.752579,258.969635 245.680573,247.923080 
	C241.021317,240.645248 236.433395,233.321747 231.813400,226.018768 
	C231.546188,225.596375 231.230164,225.197296 231.017715,224.749054 
	C229.778702,222.134750 228.376633,219.028412 231.245590,217.089203 
	C234.415604,214.946487 235.903595,218.403625 237.432449,220.366837 
	C251.445465,238.361084 264.824188,256.852539 279.468719,274.350861 
	C297.098358,295.415985 313.964111,317.122894 332.448151,337.471283 
	C334.665710,339.912537 337.037903,342.142242 340.053589,344.068542 
	C340.151306,339.385010 336.782318,336.941101 334.645538,333.951538 
	C321.392700,315.409546 306.284454,298.340240 291.940796,280.665344 
	C280.213013,266.213837 268.967957,251.406158 257.755890,236.557678 
	C250.632568,227.124054 243.792587,217.502014 236.896011,207.911987 
	C235.608017,206.120941 234.575226,204.246033 233.910172,202.190887 
	C233.227646,200.081757 232.839294,197.885880 235.108521,196.349380 
	C237.498856,194.730850 239.541840,195.541580 241.327667,197.419556 
	C246.621353,202.986404 251.006973,209.285263 255.694443,215.339737 
	C271.076080,235.207016 286.036255,255.417694 301.916656,274.877625 
	C323.897400,301.812988 346.565948,328.187134 368.942291,354.799652 
	C371.694031,358.072357 374.384186,361.411072 377.957123,364.155823 
	C379.159363,361.961517 377.705017,360.971405 376.852875,359.932434 
	C363.384613,343.511353 350.955902,326.290771 337.960876,309.507538 
	C328.893036,297.796326 319.015442,286.708954 310.027039,274.940063 
	C290.568024,249.461533 270.182373,224.669632 252.501724,197.857208 
	C248.940323,192.456406 245.063171,187.250748 241.105133,182.130157 
	C239.176636,179.635223 239.327789,176.764999 239.142548,174.063522 
	C238.923752,170.872437 243.611832,168.770508 246.505020,170.518829 
	C249.864365,172.548874 252.155212,175.661835 254.472382,178.706955 
	C272.817169,202.814880 292.948273,225.493958 311.400940,249.499176 
	C332.921722,277.495728 356.456116,303.761322 379.449646,330.498352 
	C380.706116,331.959412 381.768280,333.843048 384.386139,333.907837 
	C384.963562,331.556915 383.189880,330.303223 382.069733,328.818787 
	C370.530914,313.527069 357.230042,299.652283 345.725616,284.371704 
	C334.042633,268.853943 321.229279,254.259979 309.688019,238.627594 
	C298.943329,224.074173 287.164032,210.289322 276.127136,195.945312 
	C268.317200,185.795181 260.942566,175.307892 253.472687,164.900024 
	C251.737289,162.482071 250.218872,159.889816 250.592209,156.608200 
	C250.943878,153.516998 252.312653,151.111801 255.159927,149.994171 
	C258.001892,148.878586 260.751892,149.367599 262.793915,151.943176 
	C265.482178,155.333832 268.196228,158.705536 270.816925,162.148026 
	C284.121552,179.624832 297.229218,197.254639 310.728149,214.579727 
	C329.517151,238.694290 348.286774,262.831696 368.136749,286.097015 
	C370.930817,289.371826 373.837677,292.550385 377.316772,295.196564 
	C373.739380,287.298004 368.641937,280.599579 363.114014,274.219971 
	C350.677887,259.867798 340.606659,243.758026 329.195343,228.641800 
	C315.086548,209.952332 301.319611,191.000946 287.629974,172.000595 
	C281.024567,162.832748 274.523743,153.554016 269.471558,143.378571 
	C267.828735,140.069809 266.586914,136.816925 270.437988,134.104324 
	C273.748108,131.772766 277.659119,132.433456 281.009186,136.127930 
	C290.095459,146.148346 297.433624,157.520309 305.588043,168.259979 
	C315.839478,181.761459 326.191040,195.216278 335.777466,209.186600 
	C350.543732,230.705353 366.295319,251.504669 381.358124,272.804077 
	C389.616302,284.481506 398.321686,295.865906 408.071869,306.385834 
	C408.609222,306.965607 409.260986,307.439331 409.908295,308.005096 
	C411.456238,306.376251 410.149597,305.421875 409.441406,304.473236 
	C398.393463,289.673676 387.193390,274.985748 376.285309,260.084076 
	C363.038330,241.987244 349.345184,224.225967 336.476624,205.839310 
	C324.826691,189.193909 313.251587,172.523758 302.803772,155.096054 
	C300.498901,151.251358 298.207489,147.331421 296.531219,143.194366 
	C294.518982,138.228256 295.593231,133.278854 298.762054,129.057449 
	C301.423035,125.512581 306.114685,126.057320 309.728363,130.709946 
	C314.299805,136.595734 318.981354,142.399292 323.351868,148.459717 
	C328.644501,155.798889 334.367310,162.880493 339.789154,170.109467 
	C344.618103,176.547913 349.617828,182.946411 354.078278,189.629150 
	C357.508484,194.768402 361.771118,199.129883 365.294952,204.131805 
	C372.610291,214.515518 380.033081,224.835754 387.764252,234.911575 
	C401.571869,252.906647 415.783142,270.592346 429.562653,288.608551 
	C445.292847,309.175232 460.561768,330.095734 476.365753,350.604645 
	C486.619873,363.911499 496.756073,377.296661 506.702545,390.832886 
	C510.349396,395.795929 513.298523,395.287750 516.691040,390.349884 
	C522.705933,381.595184 529.058899,373.070618 535.352112,364.509827 
	C546.062805,349.939758 556.683716,335.299683 567.637024,320.913391 
	C575.171936,311.016815 582.922913,301.252655 590.334045,291.288300 
	C601.421570,276.381042 612.787598,261.688019 624.039062,246.912460 
	C637.840393,228.788376 652.572510,211.366592 666.178467,193.102036 
	C679.481567,175.244171 693.805481,158.235855 707.813171,140.964844 
	C711.965149,135.845642 716.237305,130.716339 721.594299,126.617294 
	C724.643921,124.283768 727.441956,122.634781 730.994873,125.082573 
	C733.782776,127.003258 735.006958,133.118805 733.305908,136.502930 
	C732.338440,138.427582 731.146606,140.258743 729.896973,142.019196 
	C717.661865,159.254257 705.344788,176.431335 693.160461,193.702087 
	C688.858215,199.800232 684.857239,206.110825 681.641174,213.001923 
	C687.388672,205.316757 693.195374,197.675003 698.871460,189.937469 
	C711.083191,173.290848 723.456726,156.771378 736.587219,140.830688 
	C738.203613,138.868393 739.648804,136.366760 742.566895,138.791077 
	C745.353333,141.106003 744.608826,143.802185 742.793579,146.340973 
	C735.360779,156.736343 727.835144,167.065765 720.457825,177.500198 
	C710.467590,191.630402 700.779968,205.978775 690.596924,219.967407 
	C680.120544,234.358917 668.933899,248.235840 658.542297,262.686127 
	C641.435730,286.474121 623.401794,309.596008 607.194763,334.030029 
	C606.673401,334.816040 606.243042,335.662476 605.258057,337.367523 
	C614.455261,330.376740 619.884521,321.579773 626.032471,313.403564 
	C646.135376,286.668793 666.168152,259.880890 686.350281,233.206055 
	C702.102722,212.385880 717.366882,191.183334 734.281677,171.265244 
	C735.636108,169.670380 737.064392,166.751831 739.897644,168.846298 
	C742.552917,170.809174 741.229309,173.683151 739.963501,175.578613 
	C734.980591,183.039856 729.571594,190.214569 724.460876,197.592682 
	C705.048035,225.618469 684.389221,252.802292 667.141357,282.293030 
	C666.670044,283.098969 666.246033,283.932526 666.128235,284.969757 
	C674.015442,277.781708 680.668091,269.545532 686.760193,260.932770 
	C699.913269,242.337708 712.468506,223.314377 726.398438,205.278076 
	C732.899170,196.860962 739.784912,188.741821 746.457581,180.456573 
	C748.201416,178.291412 750.143066,176.736847 752.758789,178.838425 
	C755.659790,181.169235 753.502136,183.295868 752.035400,185.240402 
	C739.221375,202.230042 725.572876,218.608795 714.380676,236.782639 
	C714.216736,237.048828 714.200134,237.405792 713.862183,238.651108 
	C720.820129,232.173218 726.302002,225.472641 731.790161,218.810333 
	C746.398254,201.076981 762.263184,184.462296 777.520813,167.308594 
	C779.207703,165.412079 780.859314,162.361633 784.445496,163.445358 
	C786.769714,164.147751 787.836548,165.997589 788.515808,168.143982 
	C789.436951,171.054306 787.422058,172.936005 785.873962,174.764954 
	C779.322998,182.504486 772.566833,190.070038 765.986694,197.785400 
	C745.472107,221.839203 724.543823,245.528885 704.226440,269.765442 
	C682.967407,295.125427 665.543335,323.121063 645.945435,349.599182 
	C644.582886,351.440155 643.225830,353.339691 642.680969,356.762970 
	C653.793091,344.702820 664.223328,333.310364 673.475342,320.859344 
	C685.482788,304.700195 697.384766,288.450500 709.834961,272.635590 
	C724.953735,253.430893 740.792542,234.831970 757.402100,216.853256 
	C768.544495,204.792328 779.883850,192.817825 789.685608,179.558792 
	C790.179504,178.890747 790.637207,178.127563 791.290955,177.658051 
	C793.821350,175.840530 795.947632,172.102829 799.782776,175.249466 
	C802.631531,177.586731 802.956177,182.985214 800.330322,186.208054 
	C796.129089,191.364487 791.677795,196.316498 787.364014,201.382095 
	C773.887756,217.207153 760.147095,232.801697 747.098999,248.998093 
	C737.085205,261.428162 726.308899,273.242096 716.836182,286.118774 
	C709.441406,296.170715 702.148010,306.298828 694.641724,316.266693 
	C682.727356,332.088074 671.318970,348.267944 661.429016,365.423279 
	C654.215637,377.935944 645.149536,389.314026 639.519592,402.870667 
	C647.787354,392.366180 656.213745,381.982147 664.292725,371.334412 
	C687.413513,340.862152 710.305969,310.216614 733.459534,279.769440 
	C748.557434,259.915588 763.703674,240.087814 779.315186,220.639236 
	C788.034424,209.776901 797.721619,199.689041 807.035278,189.308334 
	C809.131592,186.971756 811.345398,185.021042 814.516663,188.258865 
	C817.448853,191.252640 818.052063,194.131149 815.295288,197.464935 
	C807.973999,206.318695 800.601318,215.130798 793.356628,224.046890 
	C782.455139,237.463348 771.656250,250.963120 760.793213,264.410919 
	C751.105225,276.403992 741.022400,288.098511 731.759827,300.410767 
	C710.264587,328.983124 687.652588,356.708740 667.177185,386.058197 
	C655.943481,402.160645 643.833374,417.655090 632.716614,433.834656 
	C622.840820,448.207916 613.782410,463.143250 604.397949,477.852631 
	C603.906555,478.622955 603.739868,479.600403 603.012390,481.616608 
	C609.141968,477.579010 611.724976,472.046509 615.265808,467.462097 
	C632.460510,445.199768 649.509521,422.823181 666.437927,400.357361 
	C686.867920,373.244781 707.005249,345.911194 727.508606,318.854614 
	C737.259399,305.987305 747.649170,293.606201 757.594666,280.883820 
	C767.430603,268.301514 776.947632,255.469223 786.831482,242.925354 
	C797.537903,229.337601 808.443970,215.905167 819.395752,202.513611 
	C823.084534,198.003082 825.974121,197.710602 829.914001,201.537628 
	C831.576050,203.152084 832.894897,203.118591 834.731262,202.689209 
	C838.713013,201.758194 841.574158,203.607788 843.525330,206.808273 
	C845.544739,210.120941 846.053345,213.531586 843.390137,216.985001 
	C828.364075,236.469421 813.138550,255.809616 798.570740,275.632355 
	C793.869934,282.028839 789.332275,288.681427 784.381653,294.807648 
	C776.183044,304.953125 768.893372,315.732666 761.154419,326.174316 
	C752.459839,337.905396 742.867065,348.962585 734.625366,360.987854 
	C723.073608,377.842804 710.637756,394.030701 698.527649,410.463165 
	C686.692383,426.522614 674.523499,442.335724 662.569153,458.307953 
	C648.521423,477.077240 634.575562,495.922760 620.517944,514.684509 
	C617.565002,518.625549 617.152344,522.268616 620.327393,526.336731 
	C624.625854,531.844177 628.611755,537.594299 632.823303,543.171204 
	C641.192749,554.254089 649.605896,565.304199 658.034973,576.341919 
	C671.506409,593.982483 684.869446,611.717957 698.105286,629.521179 
	C711.362793,647.353516 724.809937,665.069275 737.671631,683.207153 
	C745.837097,694.722351 754.714417,705.738708 762.726013,717.355652 
	C775.328979,735.630188 788.532715,753.464722 801.489014,771.480286 
	C811.472046,785.361450 821.586121,799.148499 831.554321,813.040222 
	C834.070251,816.546509 836.128357,820.379700 838.612732,823.910706 
	C842.903931,830.009949 842.762268,833.080566 837.687500,837.112915 
	C833.417053,840.506104 826.556396,840.066467 823.655090,835.175964 
	C818.069946,825.761536 809.992004,818.491211 803.246521,810.101379 
	C791.764526,795.820374 781.184448,780.887146 770.322754,766.169434 
	C750.769592,739.674683 731.586060,712.900330 712.624878,685.977417 
	C694.887390,660.792053 676.386963,636.188660 657.430664,611.925598 
	C645.444824,596.584351 633.082397,581.537048 620.869446,566.373535 
	C619.854614,565.113586 619.092346,563.517822 616.910217,563.056396 
	C616.419006,565.113464 617.763245,566.392456 618.700012,567.764465 
	C630.994873,585.771912 642.956116,604.019775 655.686340,621.714355 
	C676.358582,650.448120 697.663513,678.725830 718.459412,707.371765 
	C734.085327,728.895996 748.911133,751.012024 764.891418,772.264343 
	C775.970215,786.998291 788.385864,800.728760 800.248230,814.870667 
	C804.210876,819.594788 807.848206,824.547485 811.211670,829.706787 
	C812.525940,831.722717 813.979248,834.380554 811.701416,835.954468 
	C809.380371,837.558167 806.510132,839.423706 803.134705,836.645386 
	C800.443481,834.430237 798.535461,831.571045 795.491333,829.639282 
	C798.855713,834.479004 802.394775,839.209839 805.510010,844.205017 
	C807.042786,846.662659 808.621765,849.635132 806.044495,852.479492 
	C803.264465,855.547668 799.955200,855.180359 796.464844,853.733887 
	C794.527100,852.930908 793.190063,851.622070 791.908630,850.023926 
	C784.344604,840.591187 776.769348,831.165588 769.064026,821.848328 
	C761.462158,812.656250 753.701294,803.595642 745.479797,794.828552 
	C749.661438,800.670227 753.782104,806.556824 758.036804,812.344788 
	C768.680359,826.823669 780.703674,840.253296 790.695190,855.227905 
	C791.891968,857.021667 792.940796,858.920532 793.967285,860.819824 
	C795.167297,863.040222 796.719299,866.003906 794.589050,867.671753 
	C792.135742,869.592590 788.787720,870.873962 785.257874,869.098022 
	C780.222839,866.564758 777.820190,861.602051 774.319519,857.655762 
	C772.956726,856.119446 771.744141,854.449890 770.067200,853.157593 
	C774.445496,859.207520 778.631531,865.341431 782.564453,871.645935 
	C783.352356,872.908875 784.278381,874.160889 784.711975,875.551514 
	C785.316284,877.489868 787.163208,879.997559 784.739746,881.449707 
	C782.107666,883.026855 779.951965,885.962402 775.833496,884.561462 
	C770.097412,882.610107 767.375793,877.681030 763.888794,873.599365 
	C756.221375,864.624512 748.933777,855.325195 740.960693,846.502930 
	C744.496033,851.524353 747.704285,856.820190 751.637329,861.507935 
	C758.916687,870.183899 764.914185,879.706116 771.086975,889.135742 
	C773.575195,892.936707 773.781860,896.159180 769.808350,899.033630 
	C766.749512,901.246338 762.165344,900.706543 759.636658,897.355713 
	C749.496704,883.918945 737.304382,872.284729 726.086060,858.930603 
	C722.457520,854.694946 719.265015,850.945251 716.072510,847.195618 
	C715.755920,847.485718 715.439331,847.775757 715.122742,848.065857 
	C719.232178,851.265503 720.675659,856.931396 726.031433,858.978088 
M674.136902,667.331604 
	C662.318726,649.895630 647.505615,634.860474 634.753723,618.143127 
	C622.139282,601.606140 609.515137,584.932373 594.792419,570.153809 
	C594.150574,570.677917 593.508728,571.202026 592.866882,571.726135 
	C641.969604,641.604004 693.213989,709.847168 748.821289,774.773743 
	C725.425049,738.177063 701.218811,702.183838 674.136902,667.331604 
M637.212036,654.265076 
	C619.946350,633.086060 603.245972,611.408691 583.669495,591.496155 
	C582.518005,593.884949 583.092346,594.807007 583.620422,595.584534 
	C589.780640,604.652832 595.733704,613.876892 602.242432,622.689819 
	C612.737061,636.899658 625.149170,649.534668 636.280457,663.228577 
	C654.028442,685.062561 670.062866,708.246887 688.544861,729.508667 
	C694.065674,735.859802 699.265808,742.489685 704.612854,748.991882 
	C685.182251,715.488220 661.900024,684.810669 637.212036,654.265076 
M296.373260,728.810486 
	C287.531219,741.994324 278.628052,755.141846 272.019226,769.670532 
	C314.040558,718.286011 349.269989,662.228821 385.784882,605.791504 
	C384.528107,606.636292 384.055847,606.811218 383.795258,607.149231 
	C372.018433,622.429321 360.091553,637.597656 348.538422,653.045410 
	C330.308533,677.420898 313.718506,702.939758 296.373260,728.810486 
M404.030396,690.468750 
	C392.570618,706.093445 381.110809,721.718201 369.651001,737.342896 
	C369.970978,737.618225 370.290955,737.893555 370.610931,738.168884 
	C379.017303,730.436646 388.335266,723.469177 395.615295,714.791992 
	C406.391113,701.948059 414.845428,687.296326 424.173065,673.334656 
	C430.265442,664.215515 436.649384,655.291016 442.733337,646.166443 
	C444.259674,643.877258 445.902954,641.361145 445.112885,636.992920 
	C430.532410,654.758545 417.669800,672.464783 404.030396,690.468750 
M477.544617,633.058228 
	C479.842285,629.317871 482.139923,625.577515 484.437592,621.837158 
	C451.522125,662.787903 416.771027,702.302490 390.608398,748.160950 
	C421.542755,711.569458 448.981232,672.342468 477.544617,633.058228 
M411.234619,632.748108 
	C419.361847,620.771118 427.489044,608.794067 435.616241,596.817078 
	C435.002289,596.367249 434.388367,595.917419 433.774414,595.467529 
	C406.234375,631.800415 374.571045,664.883545 349.885834,703.468262 
	C355.312714,700.135803 358.695953,694.891113 362.979553,690.519592 
	C372.617981,680.683228 380.730377,669.544922 390.894745,660.047302 
	C398.880646,652.585266 404.270111,642.344421 411.234619,632.748108 
M386.318359,696.848511 
	C398.327057,680.920776 409.835510,664.636475 420.481598,647.769043 
	C431.064606,631.001587 444.066833,615.812134 452.997437,597.956665 
	C424.037750,633.479126 395.779297,669.467102 374.901978,710.586182 
	C379.561707,706.995667 382.321594,701.874451 386.318359,696.848511 
M329.799896,754.214539 
	C322.206879,765.945801 315.537018,778.198303 309.099274,790.589966 
	C328.744568,767.884583 343.561340,742.117981 357.286041,715.649414 
	C346.817627,727.296692 338.299896,740.305115 329.799896,754.214539 
M373.919403,756.516113 
	C375.957092,752.810425 377.994781,749.104736 380.184143,745.123230 
	C369.245880,751.453125 339.785492,780.263977 337.956482,789.185242 
	C346.383759,782.769653 354.369720,776.343506 362.733459,770.453674 
	C367.695892,766.959167 371.307617,762.696594 373.919403,756.516113 
M384.213257,635.729431 
	C392.424500,625.482666 399.606567,614.499268 406.998901,603.671875 
	C408.132721,602.011230 409.866333,599.889404 407.335327,596.814514 
	C393.038971,616.101379 377.888641,634.186462 368.018646,655.884277 
	C374.482452,650.308472 378.488617,642.787476 384.213257,635.729431 
M637.142761,385.672729 
	C639.856750,381.360046 642.570801,377.047363 645.284790,372.734680 
	C627.834656,390.531830 612.903809,410.134247 601.552917,432.353119 
	C615.492065,418.672668 625.437866,401.953400 637.142761,385.672729 
M654.410522,736.112976 
	C662.940002,745.900879 670.815063,756.305908 681.049072,764.492737 
	C666.715881,743.395081 650.271423,724.095093 632.097839,706.239685 
	C638.088318,717.016418 645.908447,726.380737 654.410522,736.112976 
M767.066895,292.517181 
	C745.149231,323.070496 723.231567,353.623810 701.313904,384.177124 
	C701.689941,384.444733 702.065979,384.712311 702.442078,384.979919 
	C730.784851,349.148560 754.907104,310.296265 781.451599,273.167175 
	C776.775452,279.409729 772.099304,285.652252 767.066895,292.517181 
M690.570679,754.099182 
	C689.639893,753.006531 688.709167,751.913879 687.778442,750.821228 
	C696.845520,765.840759 742.418518,819.593323 747.815186,822.710510 
	C736.964111,809.013916 726.796326,795.730408 716.128479,782.861511 
	C708.091553,773.166443 699.413696,764.002625 690.570679,754.099182 
M604.254761,384.348724 
	C604.329407,384.639709 604.404053,384.930664 604.478699,385.221649 
	C604.906982,385.007996 605.426453,384.886749 605.750488,384.567291 
	C618.721130,371.781097 629.677551,357.370605 639.758911,342.262177 
	C641.396179,339.808502 642.872559,337.247528 644.423340,334.736115 
	C640.522034,336.795288 638.268127,340.132172 635.740601,343.188049 
	C624.835632,356.372589 613.022522,368.865417 604.254761,384.348724 
M594.116028,333.728821 
	C595.489563,331.664490 597.776001,330.121429 597.735657,327.204803 
	C582.544373,345.539276 567.018494,363.581421 554.068054,383.631287 
	C568.473389,368.145508 582.769470,352.578979 594.116028,333.728821 
M620.551147,342.556610 
	C622.789246,339.682312 625.090393,336.854584 627.253845,333.925140 
	C634.445801,324.186798 641.589172,314.412598 648.748657,304.650330 
	C650.045349,302.882294 650.936035,301.175323 647.881775,300.039185 
	C644.814087,302.489380 643.151733,306.001587 640.963867,309.071533 
	C633.304993,319.818573 625.724304,330.625519 620.551147,342.556610 
M260.863800,816.359375 
	C256.170013,825.671448 251.476212,834.983521 246.748169,844.363586 
	C254.665390,840.298462 256.803589,832.149292 260.644714,825.394775 
	C264.624390,818.396667 268.824066,811.402771 271.156158,803.521057 
	C267.403595,807.261780 263.469849,810.801636 260.863800,816.359375 
M592.732300,694.759949 
	C598.705444,700.140747 604.678650,705.521484 610.651794,710.902222 
	C600.439270,697.347778 589.067383,684.960510 576.683289,673.481689 
	C580.059692,681.800781 586.420227,687.831848 592.732300,694.759949 
M325.009521,840.464844 
	C333.958862,829.264771 340.679382,816.801086 346.323883,803.727356 
	C343.053986,806.195984 340.158142,808.727173 337.914825,812.182861 
	C332.240570,820.923950 329.006226,830.723206 325.009521,840.464844 
M287.611694,800.087952 
	C282.050232,808.392578 277.006836,816.965210 272.983826,827.347717 
	C280.165100,821.234497 294.150269,798.084229 295.847412,789.900574 
	C293.040131,793.352112 290.537109,796.429565 287.611694,800.087952 
M587.511536,375.025055 
	C589.894287,371.228638 593.769348,368.287445 594.103455,363.254028 
	C583.697449,373.023468 574.997803,384.155396 567.274170,396.128204 
	C574.377136,389.741913 581.126526,383.054443 587.511536,375.025055 
M630.214417,745.291199 
	C636.960815,753.314392 643.146118,761.841858 651.277283,768.646179 
	C643.556274,755.564331 634.013916,743.960754 622.488220,733.828735 
	C624.913208,737.468628 627.338135,741.108521 630.214417,745.291199 
M673.641785,777.719421 
	C683.004395,790.989502 691.903992,804.633545 704.112488,815.610474 
	C699.206482,808.131042 694.439392,800.544861 688.987793,793.487427 
	C684.331848,787.460022 678.901855,782.028931 673.772339,776.372070 
	C673.370728,775.929077 672.885254,776.136353 673.073120,776.880798 
	C673.112061,777.035217 673.236145,777.168091 673.641785,777.719421 
M581.723938,619.685425 
	C578.637939,616.293701 577.590637,611.131287 572.645081,608.633179 
	C573.229675,615.106018 587.807434,635.443054 594.521484,639.542175 
	C591.623779,632.135071 587.320557,625.912476 581.723938,619.685425 
M541.969299,508.611481 
	C543.002747,507.116180 545.792053,505.914215 543.737000,503.728027 
	C541.549316,501.400665 539.753967,497.826355 536.110779,497.976929 
	C533.684448,498.077209 531.110474,500.431274 530.947815,502.762360 
	C530.694336,506.394257 533.419678,509.196320 536.237183,511.221100 
	C538.501953,512.848694 540.230713,511.092865 541.969299,508.611481 
M350.921295,370.874725 
	C349.993378,370.170990 349.193329,369.129333 347.288483,369.350128 
	C354.653168,380.579742 363.229584,389.929474 372.182709,398.939789 
	C372.791199,398.411713 373.399719,397.883636 374.008209,397.355591 
	C366.519257,388.638245 359.450439,379.576538 350.921295,370.874725 
M413.141541,340.339081 
	C409.497040,335.819702 405.821930,331.330719 400.913635,328.028351 
	C406.837799,339.020752 415.134003,348.093842 423.646210,357.024536 
	C421.446991,350.877350 417.485504,345.906860 413.141541,340.339081 
M301.302765,769.598938 
	C310.707184,765.141663 312.905609,755.260742 317.970215,747.523438 
	C309.927734,754.691467 303.405548,763.126526 297.408691,772.093994 
	C298.521637,771.388611 299.634583,770.683228 301.302765,769.598938 
M509.820374,578.398743 
	C507.775726,581.443970 505.891357,584.579590 504.578827,588.020142 
	C504.133789,589.186768 504.112854,590.365051 505.322174,591.118103 
	C506.608582,591.919128 507.677155,591.142334 508.340546,590.208984 
	C511.223877,586.152039 514.290710,582.201660 516.157776,577.507019 
	C516.666077,576.228882 516.483032,575.203979 515.441772,574.403259 
	C514.207031,573.453674 513.252991,574.210327 512.438477,575.125916 
	C511.665192,575.995056 510.965149,576.929321 509.820374,578.398743 
M305.392639,343.119263 
	C306.802246,344.750671 308.061737,346.552155 309.663574,347.965759 
	C311.275604,349.388397 313.228027,350.425293 315.031311,351.631226 
	C305.876160,341.401764 298.843628,329.372650 288.109406,320.456177 
	C292.815430,328.540619 298.624756,335.754059 305.392639,343.119263 
M602.214905,673.213257 
	C603.585693,674.525513 605.081177,675.525146 607.793823,675.592834 
	C602.052979,667.592712 596.012146,660.966797 588.562866,655.694641 
	C591.439575,662.610596 596.345154,667.862244 602.214905,673.213257 
M633.049377,682.487976 
	C638.338989,689.145752 643.326782,696.066345 649.806213,701.702698 
	C644.148499,692.489258 638.800476,683.046753 629.868347,675.708435 
	C629.938232,678.608215 631.802002,680.021973 633.049377,682.487976 
M558.583191,617.960754 
	C557.562805,616.719666 556.950439,615.023621 554.946106,614.725952 
	C553.553467,615.883423 551.719910,617.249023 553.267639,619.125854 
	C556.867493,623.490967 561.336731,626.898193 565.881287,630.143188 
	C566.220581,629.798523 566.559875,629.453857 566.899170,629.109131 
	C564.262878,625.583801 561.626526,622.058533 558.583191,617.960754 
M516.793213,524.668579 
	C513.230103,526.644470 511.926910,530.342102 510.041229,533.584412 
	C509.272430,534.906372 509.501373,536.117371 510.836243,537.017151 
	C512.254333,537.973083 513.375366,537.437927 514.220276,536.220642 
	C515.912109,533.783203 517.624512,531.350037 519.138000,528.801941 
	C520.294983,526.854065 519.730774,525.315735 516.793213,524.668579 
M302.765778,857.315735 
	C307.069519,849.583130 311.495636,841.908325 314.131134,833.385864 
	C306.852875,843.049744 302.540680,854.162964 298.474060,865.400024 
	C299.794037,862.924011 301.114044,860.447998 302.765778,857.315735 
M560.915833,488.556183 
	C564.037476,485.561523 561.196960,484.006348 559.342773,482.306030 
	C557.209351,480.349731 555.396729,481.647614 553.747620,483.132599 
	C552.149841,484.571350 551.974365,486.245026 553.463196,487.873047 
	C555.453003,490.048981 557.545288,491.998138 560.915833,488.556183 
M527.846252,552.221130 
	C526.167847,554.320679 525.829041,556.291077 528.803223,558.374207 
	C532.441528,554.803284 535.729980,551.172485 536.882324,545.429382 
	C531.962341,546.403320 531.962341,546.403320 527.846252,552.221130 
M528.676941,598.470276 
	C529.002136,597.329102 530.345459,596.185242 528.692017,595.032532 
	C523.863403,598.402405 519.360901,606.440125 520.418030,610.260803 
	C524.079285,607.107300 525.719238,602.719788 528.676941,598.470276 
M358.162537,801.144592 
	C357.898285,802.354614 356.393707,803.152100 357.063324,805.124146 
	C360.937683,799.621460 365.068817,794.711609 367.897858,787.303528 
	C363.102661,791.688477 359.641724,795.282288 358.162537,801.144592 
M533.991638,466.165588 
	C534.729797,465.523346 535.584045,464.972656 536.179260,464.217682 
	C537.103882,463.044861 538.951355,461.937897 536.931396,460.167267 
	C535.326233,458.760284 533.713989,459.399384 532.496033,460.515167 
	C530.039490,462.765564 529.726929,464.944763 533.991638,466.165588 
M409.415466,374.879181 
	C410.911072,377.710449 412.822296,380.061920 416.186981,380.753967 
	C413.848755,378.723602 413.859344,374.276794 409.415466,374.879181 
M635.084656,266.305847 
	C634.649902,267.483521 632.866150,267.966888 633.400818,270.164642 
	C636.177246,266.454224 638.705627,263.075256 641.234009,259.696289 
	C640.495850,259.532013 640.164246,259.661346 639.974304,259.902313 
	C638.447388,261.839691 636.947205,263.798126 635.084656,266.305847 
z"/>
<path fill="#000000" opacity="1.000000" stroke="none" 
	d="
M765.305847,163.244644 
	C763.260254,165.464294 761.565063,167.555847 759.552551,169.276154 
	C757.741760,170.824066 755.564148,171.951523 753.398315,169.632523 
	C751.430603,167.525726 751.733032,165.344452 753.559448,163.408463 
	C757.550659,159.177704 761.662964,155.061417 765.692749,150.866562 
	C767.041260,149.462830 768.604065,149.085571 770.129150,150.215637 
	C771.854553,151.494156 771.951843,153.342422 770.826782,155.098831 
	C769.122742,157.759460 767.293945,160.340240 765.305847,163.244644 
z"/>
</svg>